PathFileType        4      (X/Y/Z)      C:\Users\ibrah\OneDrive - KTH\Model Validation - Orthoload\rmr-solver-1.0 - original\rmr-solver-1.0\ExperimentalData\S8R\trc\transformed_MSbfkg1.trc         
DataRate	CameraRate	NumFrames	NumMarkers	Units	OrigDataRate	OrigDataStartFrame	OrigNumFrames
50.0	50.0	8	27	mm	50.0	349	398
Frame#	Time	IJ			PX			C7			T8			SC			AA			TS			AI			PC			ACv			ACd			GH			EM			EL			EM2			EL2			US			RS			US2			RS2			MCP2			MCP5			SCREWAA			SCREWTS			SCREWAI			ACvloc			ACdloc			
		X1	Y1	Z1	X2	Y2	Z2	X3	Y3	Z3	X4	Y4	Z4	X5	Y5	Z5	X6	Y6	Z6	X7	Y7	Z7	X8	Y8	Z8	X9	Y9	Z9	X10	Y10	Z10	X11	Y11	Z11	X12	Y12	Z12	X13	Y13	Z13	X14	Y14	Z14	X15	Y15	Z15	X16	Y16	Z16	X17	Y17	Z17	X18	Y18	Z18	X19	Y19	Z19	X20	Y20	Z20	X21	Y21	Z21	X22	Y22	Z22	X23	Y23	Z23	X24	Y24	Z24	X25	Y25	Z25	X26	Y26	Z26	X27	Y27	Z27	
349	6.96	67.25307801784813	-25.40634990483668	12.38976965828531	79.0287664671963	-173.23439949012	28.82212776505868	-31.81209127452661	91.24218242829828	-17.6812824436547	-148.4583731351043	-84.70885366092087	-29.48948309874867	58.55736026608847	-12.98442975198519	34.23761360469854	-59.66795771395576	43.98871556616767	169.5533019264001	-81.93843187008694	64.95440673996104	74.97516250741288	-162.3283429948451	-76.39778529173401	41.12315627032661	12.48597946615507	13.89598622534452	138.9999492926981	-20.35645684259461	62.6600940466047	159.9405114861476	-20.35645684259461	62.6600940466047	159.9405114861476	-71.02409370885528	21.87500202369645	182.9164047251378	-271.3137841083816	-188.359752003698	180.3662397884129	-276.2006406503255	-168.5215527624455	249.3555485065225													-442.6463490833975	-331.2373616735252	262.9658643351868	-473.3926728968703	-289.6630097489626	290.3516870341953																						
350	6.98	68.4221701901622	-25.88124421403234	11.68458110494391	79.63093615214177	-173.7361775827699	28.31261808724715	-30.21529621898243	91.12341440661197	-18.43718890603981	-147.572093559447	-84.38089745698599	-29.86165825936607	59.79967976294085	-13.39498776614155	33.52522581677498	-58.28469372290906	44.06036303067748	168.7863202881686	-80.65991729453151	65.09453982718016	74.24329071559687	-161.5233416430588	-76.0249306744193	40.54538563231998	13.73290808461429	13.75530070530041	138.1042441626292	-18.93349864748671	62.61699130338793	159.1010183055612	-18.93349864748671	62.61699130338793	159.1010183055612	-69.7571758271737	21.99010868814425	182.1744241243848	-270.4446542065896	-187.8658441386092	180.1332218772646	-275.1818629193239	-167.986820214001	249.1259856311513													-441.6599047554079	-330.5752362826088	263.1871584824029	-472.3772660847918	-288.9749752832867	290.5485143811638																						
351	7.0	69.40189234800924	-26.18235137095522	10.91840689791318	80.22467624468253	-174.0560569869546	27.68717941238645	-28.96143823966557	91.0733175663502	-19.15167333732552	-146.8334124552912	-84.1163148091842	-30.17175614026344	60.85298274376442	-13.64846170728315	32.76115137904295	-57.1142889391983	44.07263586041528	168.0898458408889	-79.67932434128531	65.15222549818958	73.59782284704892	-160.821398999142	-75.8582948202262	40.0811539782499	14.79671524631235	13.66852597340617	137.2380949934964	-17.75659249559886	62.5764756573457	158.3135512372098	-17.75659249559886	62.5764756573457	158.3135512372098	-68.68154914801494	21.99388602123017	181.4605060924855	-269.3285048441062	-187.9111905170385	179.9174770950422	-273.9263670614664	-168.028802784874	248.9215197566328													-440.0146876589869	-330.9553384427987	263.4216738728219	-470.8203561406307	-289.4165244546553	290.7680338072062																						
352	7.02	70.17323352972188	-26.306527698718	10.09391873585822	80.80009626462608	-174.1921226433697	26.94220519293352	-28.07699785960663	91.090831457199	-19.81879947437053	-146.2582183998259	-83.92490537056942	-30.42375700555687	61.69695954262129	-13.74301497176476	31.94838688575669	-56.17985140470667	44.01752104326368	167.4754890979889	-79.02187329576614	65.11516043701984	73.05051875233063	-160.2367053489768	-75.91808648333677	39.74458736664183	15.65650065681431	13.63258057143607	136.4134419277776	-16.85038067163192	62.53352681443527	157.5893785612113	-16.85038067163192	62.53352681443527	157.5893785612113	-67.818788911124	21.87216103959995	180.7831631747056	-267.9631387944677	-188.5315952506868	179.7229023071015	-272.4286457876379	-168.6867259064679	248.7468857698921													-437.6766048887963	-332.4266579267524	263.6720356379327	-468.6873347546367	-291.0416805093435	291.019477857564																						
353	7.04	70.7173142581086	-26.25322588989797	9.214807135930355	81.34512883309853	-174.1442758994698	26.07720755487724	-27.58570959862672	91.17259549365968	-20.43538058034284	-145.86109792633	-83.81660346967955	-30.62496770050663	62.31112400533761	-13.67905182556949	31.09060276298812	-55.50540477205771	43.88763426530024	166.9511673852147	-78.71258891614657	64.97129770106517	72.60932180418074	-159.7838282903891	-76.22199887855392	39.54560639479983	16.28957962661277	13.64426451433404	135.6388855060684	-16.24054058333077	62.48302922055193	156.9362661804391	-16.24054058333077	62.48302922055193	156.9362661804391	-67.19253604600837	21.61219202283286	180.14765411045	-266.3484841329598	-189.7551793870513	179.5540984287921	-270.6851219982531	-169.9910307801329	248.6073350620331													-434.6060185096737	-335.0222137265526	263.9466603427535	-465.9371412819093	-293.8893258573074	291.3165935926938																						
354	7.06	71.0158308252285	-26.0242802991377	8.285840404204585	81.84595284654273	-173.9138967060501	25.09496024470605	-27.50809073706156	91.31309257729758	-21.00075001149566	-145.6548935756164	-83.80115514483597	-30.78534800866372	62.6753334846166	-13.45899140939827	30.19221661814644	-55.11518958734681	43.67629181213906	166.5208939284872	-78.77564122675874	64.70908180674272	72.27823103217689	-159.477196330844	-76.78467201225631	39.48960275345901	16.67203092596923	13.70030041528568	134.9193425247076	-15.95311237630637	62.41978380012527	156.3582642519488	-15.95311237630637	62.41978380012527	156.3582642519488	-66.82750588258276	21.20286647548038	179.5558655925456	-264.4857623300675	-191.6012046372676	179.4164230264786	-268.6934840037918	-171.9619845018981	248.5086427750413													-430.7592984578635	-338.7564365730026	264.2592830930905	-462.5236739862305	-297.9802654784576	291.6769212102021																						
355	7.08	71.05147199512446	-25.62365203180957	7.312903507580065	82.28746509476471	-173.5035131349828	24.0014877377568	-27.86109945899526	91.50485300989811	-21.51633174142407	-145.6503697781145	-83.8878112204178	-30.91662911553063	62.77030215811276	-13.0870203334895	29.25846671315616	-55.03288953458262	43.37750148892647	166.1848614905913	-79.23362495131303	64.31758821036111	72.0574542135428	-159.3305448470859	-77.61734158059366	39.57745086952549	16.77936183872925	13.79728423353934	134.2560158628438	-16.01373314869813	62.33845246007962	155.8557836010131	-16.01373314869813	62.33845246007962	155.8557836010131	-66.74832571346776	20.63474026678244	179.0064693848637	-262.3763925822201	-194.0792628544384	179.3160031566181	-266.4517233131581	-174.6087323636339	248.4570907891552													-426.0906162456266	-343.623155689516	264.6280595855786	-458.397426687614	-303.3148610840093	292.1207461164895																						
356	7.100000000000001	70.8083076687007	-25.05716907335832	6.303001540190319	82.6537712531778	-172.9165236813972	22.80589897797677	-28.65789905828731	91.73870471816218	-21.98506717825445	-145.8559931976386	-84.08504368087394	-31.03130801164853	62.57810066661128	-12.56885586071678	28.29546651676157	-55.28080178236434	42.98589149626687	165.9397911955924	-80.10678283258338	63.78658717737716	71.9438041848727	-159.3563516567962	-78.72766076621302	39.80582048376213	16.58728088378467	13.93155234292758	133.6466638126016	-16.44678842912148	62.23345138482485	155.4259364785885	-16.44678842912148	62.23345138482485	155.4259364785885	-66.97825898515295	19.89995113481724	178.4953246624715	-260.0207554004313	-197.1888153764585	179.2596815456437	-263.9569918605904	-177.9287799189093	248.4593977319963													-420.5539292678494	-349.5942925578911	265.0743009229144	-453.5073251235935	-309.8713573611142	292.669776672383																						
